<svg width="3843" height="1149" viewBox="0 0 3843 1149" fill="none" xmlns="http://www.w3.org/2000/svg">
<circle cx="574.5" cy="574.5" r="574.5" fill="#D7004D"/>
<path d="M493.869 784V408.727H609.92V477.136H613.83C620.67 452.379 631.828 433.973 647.301 421.92C662.775 409.705 680.773 403.597 701.295 403.597C706.833 403.597 712.534 404.004 718.398 404.818C724.261 405.47 729.718 406.528 734.767 407.994V511.83C729.066 509.875 721.574 508.328 712.29 507.188C703.169 506.047 695.025 505.477 687.858 505.477C673.688 505.477 660.902 508.653 649.5 515.006C638.261 521.195 629.384 529.909 622.869 541.148C616.517 552.223 613.341 565.254 613.341 580.239V784H493.869ZM939.384 791.085C900.13 791.085 866.251 783.348 837.747 767.875C809.406 752.239 787.58 730.006 772.27 701.176C757.122 672.184 749.548 637.735 749.548 597.83C749.548 559.064 757.204 525.186 772.514 496.193C787.825 467.038 809.406 444.398 837.259 428.273C865.111 411.985 897.931 403.841 935.719 403.841C962.431 403.841 986.863 407.994 1009.01 416.301C1031.17 424.608 1050.3 436.905 1066.43 453.193C1082.55 469.481 1095.1 489.597 1104.05 513.54C1113.01 537.32 1117.49 564.602 1117.49 595.386V625.193H791.327V555.807H1006.33C1006.16 543.102 1003.15 531.782 997.287 521.847C991.423 511.911 983.361 504.174 973.099 498.636C963.001 492.936 951.355 490.085 938.162 490.085C924.806 490.085 912.834 493.098 902.247 499.125C891.66 504.989 883.272 513.051 877.082 523.312C870.893 533.411 867.635 544.894 867.31 557.761V628.369C867.31 643.68 870.323 657.117 876.349 668.682C882.376 680.083 890.927 688.96 902.003 695.312C913.079 701.665 926.272 704.841 941.582 704.841C952.17 704.841 961.779 703.375 970.412 700.443C979.045 697.511 986.455 693.195 992.645 687.494C998.834 681.794 1003.48 674.79 1006.57 666.483L1116.27 669.659C1111.71 694.254 1101.69 715.672 1086.22 733.915C1070.91 751.994 1050.79 766.083 1025.87 776.182C1000.95 786.117 972.122 791.085 939.384 791.085Z" fill="white"/>
<path d="M1353.69 791.085C1314.11 791.085 1280.15 782.941 1251.81 766.653C1223.63 750.366 1201.96 727.725 1186.82 698.733C1171.67 669.578 1164.1 635.862 1164.1 597.585C1164.1 559.146 1171.67 525.43 1186.82 496.438C1202.13 467.282 1223.87 444.561 1252.05 428.273C1280.39 411.985 1314.19 403.841 1353.44 403.841C1388.13 403.841 1418.35 410.112 1444.08 422.653C1469.98 435.195 1490.18 452.949 1504.67 475.915C1519.33 498.718 1527.07 525.511 1527.88 556.295H1416.23C1413.95 537.076 1407.44 522.009 1396.69 511.097C1386.1 500.184 1372.25 494.727 1355.15 494.727C1341.31 494.727 1329.17 498.636 1318.75 506.455C1308.32 514.11 1300.18 525.511 1294.32 540.659C1288.62 555.644 1285.77 574.212 1285.77 596.364C1285.77 618.515 1288.62 637.246 1294.32 652.557C1300.18 667.705 1308.32 679.187 1318.75 687.006C1329.17 694.661 1341.31 698.489 1355.15 698.489C1366.23 698.489 1376 696.127 1384.47 691.403C1393.1 686.68 1400.19 679.758 1405.73 670.636C1411.26 661.352 1414.77 650.114 1416.23 636.92H1527.88C1526.74 667.867 1519.01 694.905 1504.67 718.034C1490.5 741.163 1470.55 759.161 1444.82 772.028C1419.24 784.733 1388.87 791.085 1353.69 791.085ZM1589.03 784V408.727H1705.08V477.136H1708.99C1715.83 452.379 1726.98 433.973 1742.46 421.92C1757.93 409.705 1775.93 403.597 1796.45 403.597C1801.99 403.597 1807.69 404.004 1813.55 404.818C1819.42 405.47 1824.87 406.528 1829.92 407.994V511.83C1824.22 509.875 1816.73 508.328 1807.45 507.188C1798.32 506.047 1790.18 505.477 1783.01 505.477C1768.84 505.477 1756.06 508.653 1744.66 515.006C1733.42 521.195 1724.54 529.909 1718.03 541.148C1711.67 552.223 1708.5 565.254 1708.5 580.239V784H1589.03ZM2120.72 622.017V408.727H2239.95V784H2126.1V714.125H2122.19C2113.88 737.091 2099.71 755.333 2079.68 768.852C2059.81 782.208 2035.78 788.886 2007.6 788.886C1982.03 788.886 1959.55 783.023 1940.17 771.295C1920.79 759.568 1905.72 743.199 1894.97 722.188C1884.22 701.013 1878.77 676.256 1878.6 647.915V408.727H1998.08V624.46C1998.24 644.82 2003.61 660.864 2014.2 672.591C2024.79 684.318 2039.2 690.182 2057.44 690.182C2069.33 690.182 2080 687.576 2089.45 682.364C2099.06 676.989 2106.63 669.252 2112.17 659.153C2117.87 648.892 2120.72 636.513 2120.72 622.017ZM2315.99 784V408.727H2435.47V784H2315.99ZM2375.85 364.994C2359.08 364.994 2344.66 359.456 2332.61 348.381C2320.55 337.142 2314.53 323.623 2314.53 307.824C2314.53 292.187 2320.55 278.831 2332.61 267.756C2344.66 256.517 2359.08 250.898 2375.85 250.898C2392.79 250.898 2407.21 256.517 2419.1 267.756C2431.15 278.831 2437.18 292.187 2437.18 307.824C2437.18 323.623 2431.15 337.142 2419.1 348.381C2407.21 359.456 2392.79 364.994 2375.85 364.994ZM2723.33 408.727V496.682H2486.59V408.727H2723.33ZM2536.19 318.818H2655.66V665.994C2655.66 673.324 2656.8 679.269 2659.08 683.83C2661.52 688.227 2665.02 691.403 2669.58 693.358C2674.14 695.15 2679.6 696.045 2685.95 696.045C2690.51 696.045 2695.32 695.638 2700.37 694.824C2705.58 693.847 2709.49 693.032 2712.1 692.381L2730.17 778.625C2724.47 780.254 2716.41 782.29 2705.99 784.733C2695.73 787.176 2683.43 788.723 2669.1 789.375C2641.08 790.678 2617.06 787.42 2597.02 779.602C2577.15 771.621 2561.92 759.242 2551.33 742.466C2540.91 725.689 2535.86 704.597 2536.19 679.188V318.818ZM2955.68 791.085C2916.43 791.085 2882.55 783.348 2854.04 767.875C2825.7 752.239 2803.88 730.006 2788.57 701.176C2773.42 672.184 2765.85 637.735 2765.85 597.83C2765.85 559.064 2773.5 525.186 2788.81 496.193C2804.12 467.038 2825.7 444.398 2853.56 428.273C2881.41 411.985 2914.23 403.841 2952.02 403.841C2978.73 403.841 3003.16 407.994 3025.31 416.301C3047.46 424.608 3066.6 436.905 3082.73 453.193C3098.85 469.481 3111.39 489.597 3120.35 513.54C3129.31 537.32 3133.79 564.602 3133.79 595.386V625.193H2807.62V555.807H3022.62C3022.46 543.102 3019.45 531.782 3013.58 521.847C3007.72 511.911 2999.66 504.174 2989.4 498.636C2979.3 492.936 2967.65 490.085 2954.46 490.085C2941.1 490.085 2929.13 493.098 2918.54 499.125C2907.96 504.989 2899.57 513.051 2893.38 523.312C2887.19 533.411 2883.93 544.894 2883.61 557.761V628.369C2883.61 643.68 2886.62 657.117 2892.65 668.682C2898.67 680.083 2907.22 688.96 2918.3 695.312C2929.38 701.665 2942.57 704.841 2957.88 704.841C2968.47 704.841 2978.08 703.375 2986.71 700.443C2995.34 697.511 3002.75 693.195 3008.94 687.494C3015.13 681.794 3019.77 674.79 3022.87 666.483L3132.57 669.659C3128.01 694.254 3117.99 715.672 3102.52 733.915C3087.21 751.994 3067.09 766.083 3042.17 776.182C3017.25 786.117 2988.42 791.085 2955.68 791.085ZM3194.81 784V408.727H3310.86V477.136H3314.77C3321.61 452.379 3332.77 433.973 3348.24 421.92C3363.71 409.705 3381.71 403.597 3402.23 403.597C3407.77 403.597 3413.47 404.004 3419.34 404.818C3425.2 405.47 3430.66 406.528 3435.7 407.994V511.83C3430 509.875 3422.51 508.328 3413.23 507.188C3404.11 506.047 3395.96 505.477 3388.8 505.477C3374.63 505.477 3361.84 508.653 3350.44 515.006C3339.2 521.195 3330.32 529.909 3323.81 541.148C3317.45 552.223 3314.28 565.254 3314.28 580.239V784H3194.81ZM3812.02 523.312L3702.32 526.244C3701.18 518.426 3698.08 511.504 3693.03 505.477C3687.98 499.288 3681.39 494.483 3673.24 491.062C3665.26 487.479 3655.98 485.688 3645.39 485.688C3631.55 485.688 3619.74 488.456 3609.96 493.994C3600.35 499.532 3595.63 507.025 3595.79 516.472C3595.63 523.801 3598.56 530.153 3604.59 535.528C3610.78 540.903 3621.77 545.22 3637.57 548.477L3709.89 562.159C3747.35 569.326 3775.21 581.216 3793.45 597.83C3811.85 614.443 3821.14 636.432 3821.3 663.795C3821.14 689.53 3813.48 711.926 3798.33 730.983C3783.35 750.04 3762.83 764.862 3736.77 775.449C3710.71 785.873 3680.9 791.085 3647.35 791.085C3593.76 791.085 3551.49 780.091 3520.54 758.102C3489.76 735.951 3472.17 706.307 3467.77 669.17L3585.78 666.239C3588.38 679.92 3595.14 690.345 3606.06 697.511C3616.97 704.678 3630.89 708.261 3647.83 708.261C3663.14 708.261 3675.6 705.411 3685.21 699.71C3694.82 694.009 3699.71 686.436 3699.87 676.989C3699.71 668.519 3695.96 661.759 3688.63 656.71C3681.31 651.498 3669.82 647.426 3654.19 644.494L3588.71 632.034C3551.08 625.193 3523.07 612.57 3504.66 594.165C3486.26 575.597 3477.14 551.979 3477.3 523.312C3477.14 498.229 3483.81 476.811 3497.33 459.057C3510.85 441.14 3530.07 427.458 3554.99 418.011C3579.91 408.564 3609.31 403.841 3643.19 403.841C3694.01 403.841 3734.08 414.509 3763.4 435.847C3792.71 457.021 3808.92 486.176 3812.02 523.312Z" fill="#414141"/>
</svg>
